<?xml version="1.0" encoding="UTF-8"?>
<svg xmlns="http://www.w3.org/2000/svg" id="Capa_2" viewBox="0 0 173.18 96.2">
  <defs>
    <style>.cls-1{fill:none;stroke:#fff;stroke-miterlimit:10;stroke-width:1.51px;}.cls-2{fill:#fff;stroke-width:0px;}</style>
  </defs>
  <g id="Capa_3">
    <path class="cls-2" d="M16.77,49.15h1.97v14.39h-1.97v-14.39Z"></path>
    <path class="cls-2" d="M21.85,49.15h2.79l4.14,12.17,4.11-12.17h2.77v14.39h-1.86v-8.5c0-.29,0-.78.02-1.46s.02-1.41.02-2.19l-4.11,12.14h-1.93l-4.15-12.14v.44c0,.35.01.89.03,1.61s.03,1.25.03,1.59v8.5h-1.86v-14.39Z"></path>
    <path class="cls-2" d="M42.82,49.15h2.2l5.22,14.39h-2.14l-1.5-4.31h-5.65l-1.56,4.31h-2l5.42-14.39ZM46.05,57.64l-2.22-6.36-2.3,6.36h4.52Z"></path>
    <path class="cls-2" d="M61.59,49.56c1.41.75,2.27,2.07,2.59,3.95h-1.93c-.23-1.05-.71-1.82-1.43-2.3-.72-.48-1.63-.72-2.73-.72-1.31,0-2.4.5-3.3,1.5-.89,1-1.34,2.49-1.34,4.47,0,1.71.37,3.1,1.1,4.18.74,1.07,1.94,1.61,3.6,1.61,1.27,0,2.33-.38,3.16-1.13.84-.75,1.26-1.97,1.28-3.66h-4.51v-1.62h6.32v7.7h-1.25l-.47-1.85c-.65.73-1.22,1.23-1.73,1.51-.84.48-1.91.73-3.21.73-1.68,0-3.12-.55-4.33-1.66-1.32-1.38-1.98-3.29-1.98-5.7s.64-4.33,1.93-5.75c1.22-1.36,2.81-2.04,4.75-2.04,1.33,0,2.48.26,3.46.78Z"></path>
    <path class="cls-2" d="M68.05,49.15h1.97v14.39h-1.97v-14.39Z"></path>
    <path class="cls-2" d="M73.19,49.15h2.3l7.18,11.63v-11.63h1.86v14.39h-2.19l-7.28-11.62v11.62h-1.86v-14.39Z"></path>
    <path class="cls-2" d="M91.88,49.15h2.2l5.22,14.39h-2.14l-1.5-4.31h-5.65l-1.56,4.31h-2l5.42-14.39ZM95.11,57.64l-2.22-6.36-2.3,6.36h4.52Z"></path>
    <path class="cls-2" d="M102.34,58.9c.04.82.23,1.48.56,1.99.62.95,1.72,1.43,3.29,1.43.7,0,1.35-.1,1.93-.31,1.12-.4,1.68-1.13,1.68-2.17,0-.78-.24-1.34-.71-1.68-.48-.33-1.23-.61-2.26-.85l-1.89-.44c-1.23-.29-2.11-.6-2.62-.95-.89-.6-1.33-1.5-1.33-2.69,0-1.29.44-2.35,1.31-3.18.87-.83,2.1-1.24,3.7-1.24,1.47,0,2.72.36,3.74,1.09,1.03.73,1.54,1.89,1.54,3.49h-1.83c-.09-.77-.29-1.36-.6-1.77-.57-.75-1.54-1.13-2.9-1.13-1.1,0-1.9.24-2.38.72-.48.48-.72,1.05-.72,1.69,0,.71.28,1.22.85,1.55.37.21,1.22.47,2.53.78l1.96.46c.94.22,1.67.53,2.18.91.89.67,1.33,1.65,1.33,2.93,0,1.59-.57,2.73-1.7,3.42-1.13.69-2.44,1.03-3.94,1.03-1.75,0-3.11-.46-4.1-1.37-.99-.91-1.47-2.14-1.45-3.69h1.83Z"></path>
    <path class="cls-2" d="M114.64,61.4h2.05v2.14h-2.05v-2.14Z"></path>
    <path class="cls-2" d="M16.51,69.21h6.44c1.27,0,2.3.36,3.08,1.08.78.72,1.17,1.74,1.17,3.04,0,1.12-.35,2.1-1.05,2.93-.7.83-1.77,1.25-3.21,1.25h-4.49v6.08h-1.95v-14.39ZM24.08,71.19c-.43-.2-1.02-.3-1.76-.3h-3.85v4.99h3.85c.87,0,1.57-.19,2.12-.56.54-.37.81-1.03.81-1.97,0-1.06-.39-1.78-1.17-2.16Z"></path>
    <path class="cls-2" d="M29.95,69.21h6.54c1.08,0,1.97.16,2.67.48,1.33.61,1.99,1.75,1.99,3.4,0,.86-.18,1.57-.53,2.12-.36.55-.85.99-1.49,1.32.56.23.98.53,1.27.9.28.37.44.98.48,1.81l.07,1.93c.02.55.07.96.14,1.23.12.46.33.75.63.88v.32h-2.39c-.07-.12-.12-.28-.16-.48-.04-.2-.07-.57-.1-1.14l-.12-2.4c-.04-.94-.38-1.57-1.02-1.89-.36-.18-.93-.26-1.7-.26h-4.31v6.17h-1.95v-14.39ZM36.28,75.81c.89,0,1.59-.18,2.11-.55.52-.37.78-1.03.78-1.98,0-1.03-.36-1.72-1.09-2.1-.39-.2-.91-.29-1.55-.29h-4.63v4.92h4.38Z"></path>
    <path class="cls-2" d="M56.06,71.27c.95,1.27,1.43,2.9,1.43,4.89,0,2.15-.55,3.94-1.64,5.36-1.28,1.67-3.11,2.51-5.48,2.51-2.21,0-3.96-.73-5.22-2.19-1.13-1.41-1.7-3.19-1.7-5.35,0-1.95.48-3.61,1.45-5,1.24-1.78,3.08-2.67,5.51-2.67s4.42.82,5.64,2.45ZM54.34,80.45c.77-1.23,1.15-2.65,1.15-4.25,0-1.69-.44-3.06-1.33-4.09-.89-1.03-2.1-1.55-3.63-1.55s-2.7.51-3.65,1.53c-.94,1.02-1.41,2.53-1.41,4.53,0,1.6.4,2.94,1.21,4.04.81,1.1,2.12,1.64,3.92,1.64s2.96-.62,3.73-1.85Z"></path>
    <path class="cls-2" d="M58.7,69.21h2.27l4.14,6.92,4.14-6.92h2.29l-5.45,8.59v5.8h-1.95v-5.8l-5.44-8.59Z"></path>
    <path class="cls-2" d="M73.38,69.21h10.44v1.76h-8.54v4.37h7.9v1.67h-7.9v4.88h8.69v1.71h-10.59v-14.39Z"></path>
    <path class="cls-2" d="M96.76,70.26c.99.96,1.55,2.05,1.66,3.27h-1.9c-.21-.93-.63-1.66-1.27-2.2-.63-.54-1.52-.81-2.66-.81-1.39,0-2.52.5-3.37,1.5s-1.28,2.53-1.28,4.58c0,1.69.39,3.06,1.16,4.1s1.93,1.57,3.46,1.57c1.41,0,2.49-.55,3.22-1.66.39-.58.68-1.35.88-2.29h1.9c-.17,1.52-.72,2.79-1.67,3.81-1.13,1.23-2.65,1.85-4.57,1.85-1.65,0-3.04-.51-4.17-1.52-1.48-1.34-2.22-3.41-2.22-6.21,0-2.12.56-3.87,1.67-5.23,1.2-1.48,2.86-2.22,4.97-2.22,1.8,0,3.2.48,4.19,1.44Z"></path>
    <path class="cls-2" d="M111.54,69.21v1.71h-4.85v12.68h-1.97v-12.68h-4.85v-1.71h11.67Z"></path>
    <path class="cls-2" d="M116.05,69.21h2.2l5.22,14.39h-2.14l-1.5-4.31h-5.65l-1.56,4.31h-2l5.42-14.39ZM119.29,77.71l-2.22-6.36-2.3,6.36h4.52Z"></path>
    <path class="cls-2" d="M125.19,69.21h2.79l4.14,12.17,4.11-12.17h2.77v14.39h-1.86v-8.5c0-.29,0-.78.02-1.46s.02-1.41.02-2.19l-4.11,12.14h-1.93l-4.15-12.14v.44c0,.35.01.89.03,1.61s.03,1.25.03,1.59v8.5h-1.86v-14.39Z"></path>
    <path class="cls-2" d="M153.81,71.27c.95,1.27,1.43,2.9,1.43,4.89,0,2.15-.55,3.94-1.64,5.36-1.28,1.67-3.11,2.51-5.48,2.51-2.21,0-3.96-.73-5.22-2.19-1.13-1.41-1.7-3.19-1.7-5.35,0-1.95.48-3.61,1.45-5,1.24-1.78,3.08-2.67,5.51-2.67s4.42.82,5.64,2.45ZM152.09,80.45c.77-1.23,1.15-2.65,1.15-4.25,0-1.69-.44-3.06-1.33-4.09-.89-1.03-2.1-1.55-3.63-1.55s-2.7.51-3.65,1.53c-.94,1.02-1.41,2.53-1.41,4.53,0,1.6.4,2.94,1.21,4.04.81,1.1,2.12,1.64,3.92,1.64s2.96-.62,3.73-1.85Z"></path>
    <path class="cls-2" d="M158.84,78.96c.04.82.23,1.48.56,1.99.62.95,1.72,1.43,3.29,1.43.7,0,1.35-.1,1.93-.31,1.12-.4,1.68-1.13,1.68-2.17,0-.78-.24-1.34-.71-1.68-.48-.33-1.23-.61-2.26-.85l-1.89-.44c-1.23-.29-2.11-.6-2.62-.95-.89-.6-1.33-1.5-1.33-2.69,0-1.29.44-2.35,1.31-3.18.87-.83,2.1-1.24,3.7-1.24,1.47,0,2.72.36,3.74,1.09,1.03.73,1.54,1.89,1.54,3.49h-1.83c-.09-.77-.29-1.36-.6-1.77-.57-.75-1.54-1.13-2.9-1.13-1.1,0-1.9.24-2.38.72-.48.48-.72,1.05-.72,1.69,0,.71.28,1.22.85,1.55.37.21,1.22.47,2.53.78l1.96.46c.94.22,1.67.53,2.18.91.89.67,1.33,1.65,1.33,2.93,0,1.59-.57,2.73-1.7,3.42-1.13.69-2.44,1.03-3.94,1.03-1.75,0-3.11-.46-4.1-1.37-.99-.91-1.47-2.14-1.45-3.69h1.83Z"></path>
    <path class="cls-2" d="M171.13,81.47h2.05v2.14h-2.05v-2.14Z"></path>
    <polyline class="cls-1" points=".75 96.2 .75 26.68 44.9 1.3 44.9 35.71"></polyline>
  </g>
</svg>
