<?xml version="1.0" encoding="UTF-8"?>
<svg xmlns="http://www.w3.org/2000/svg" id="Capa_2" viewBox="0 0 93 79.88">
  <defs>
    <style>.cls-1{fill:#0c1d26;}.cls-1,.cls-2{stroke-width:0px;}.cls-2{fill:#fff;}</style>
  </defs>
  <g id="Capa_3">
    <rect class="cls-1" width="93" height="79.88"></rect>
    <path class="cls-2" d="M37.37,66.03c-.05-.08-.1-.12-.17-.15-.07-.02-.14-.03-.22-.03-.25,0-.52.04-.76.09-.24.04-.47.09-.68.09-2.43,0-4.38-1.86-4.38-4.16s1.95-4.16,4.38-4.16c.48,0,1.4.22,1.52.22.14,0,.18-.04.31-.22v1.69c-.51-.27-1.26-.48-1.83-.48-1.72,0-3.11,1.33-3.11,2.95s1.38,2.95,3.11,2.95c.59,0,1.26-.15,1.83-.46v1.67Z"></path>
    <path class="cls-2" d="M38.81,58.33c0-.19-.05-.31-.22-.45h1.68c-.17.13-.22.26-.22.45v7.07c0,.19.05.31.22.45h-1.68c.17-.13.22-.26.22-.45v-7.07Z"></path>
    <path class="cls-2" d="M41.05,65.85c.17-.18.23-.37.38-.7l3.41-7.44h.02l3.82,7.76c.07.13.15.28.28.38h-1.93c.1-.04.14-.16.14-.26,0-.06-.03-.17-.09-.3l-.54-1.22h-3.17l-.54,1.22c-.06.13-.09.25-.09.3,0,.1.03.21.14.26h-1.82ZM44.88,60.25l-1.1,2.62h2.26l-1.16-2.62Z"></path>
    <path class="cls-2" d="M49.41,64.21c.47.49.95.68,1.65.68.86,0,1.42-.56,1.42-1.38,0-1.76-2.99-1.72-2.99-3.85,0-1.2.93-1.96,2.08-1.96.2,0,.37.04.53.08.16.03.31.08.46.08.12,0,.25-.04.32-.15v1.73c-.31-.45-.71-.6-1.27-.6-.4,0-.83.37-.83.75,0,1.32,2.99,1.3,2.99,3.88,0,1.38-1.05,2.55-2.59,2.55-.56,0-1.01-.2-1.45-.2-.09,0-.24.1-.31.2v-1.82Z"></path>
    <path class="cls-2" d="M54.09,65.85c.17-.18.23-.37.38-.7l3.41-7.44h.02l3.82,7.76c.07.13.15.28.28.38h-1.93c.1-.04.14-.16.14-.26,0-.06-.03-.17-.09-.3l-.54-1.22h-3.17l-.54,1.22c-.06.13-.09.25-.09.3,0,.1.03.21.14.26h-1.82ZM57.92,60.25l-1.1,2.62h2.26l-1.16-2.62Z"></path>
    <path class="cls-2" d="M53.37,40.44v-9.97l-5.18,3.02v-2.66l2.4-1.39v-14.72l-3.57,2.1v7.93l-7.09,4.2v9.48l-2.5-1.44v7.31l5.86,3.35v-6.9l1.67-.99v9.39l5.2-3.01.02,3.01,5.54,3.23v-10.56s-2.35-1.37-2.35-1.37ZM42.98,40.2l-2.43-1.4v-9.48l6.46-3.83v6.02l.54-.31v2.66l-2.6,1.52v3.65l-1.97,1.18ZM45.59,48.05v-12.32l1.97-1.15.63-.37,4.55-2.65v8.51l-2.61-1.52.04,6.85-4.57,2.65Z"></path>
    <polygon class="cls-2" points="42.29 14.72 42.33 22.53 45.81 24.55 45.82 16.75 42.29 14.72"></polygon>
  </g>
</svg>
