<?xml version="1.0" encoding="UTF-8"?>
<svg xmlns="http://www.w3.org/2000/svg" id="Capa_2" viewBox="0 0 55.55 61.82">
  <defs>
    <style>.cls-1{fill:#0971c3;stroke-width:0px;}</style>
  </defs>
  <g id="Capa_3">
    <path class="cls-1" d="M23.52,0c3.47,1.27,6.55,3.15,9.15,5.81,1.61,1.65,2.83,3.47,3.44,5.75.29,1.07.93,2.31,1.8,2.89,1.73,1.15,1.21,2.68,1.19,4.15-.02,1.38-1.23,1.29-2.12,1.58-.24.08-.46.18-.75.29.12.35.17.66.32.91,1.3,2.19.92,4.21-.52,6.18-1.68,2.28-3.27,4.62-4.98,6.87-.87,1.14-.88,2.16-.24,3.41,1.46,2.84,3.84,4.5,6.76,5.52,1.55.54,3.14,1.01,4.66,1.62.36.14.57.69.84,1.04-.45.12-.9.35-1.34.33-.38-.02-.75-.31-1.11-.5-3.37-1.78-6.05-1.51-8.95,1-.89.77-1.68,1.67-2.52,2.51-1.35,1.34-2.18,1.38-3.59.19q-1.8-1.52-3.72-.08c-1.52,1.14-3.08,1.15-4.49-.15-.94-.87-1.72-1.91-2.61-2.84-1.46-1.54-3.18-2.15-5.31-1.53-4.35,1.28-8.1,2.94-7.71,9.82.08,1.39.01,2.78.01,4.17,0,.31.1.67-.03.92-.21.41-.57.74-.86,1.1-.29-.41-.83-.82-.84-1.24-.02-2.41.05-4.82.16-7.23.17-3.34,1.65-5.94,4.69-7.44,1.61-.79,3.34-1.34,5.01-1.99,2.52-.98,4.64-2.41,5.88-4.94.74-1.51.55-2.74-.51-4.11-1.95-2.52-3.73-5.17-5.49-7.82-.86-1.3-.78-2.73-.08-4.12.25-.49.48-.99.56-1.16-1.01-1.17-1.94-2.09-2.66-3.16-.59-.87-.19-1.69.47-2.51.85-1.06,1.73-2.19,2.22-3.44,1.55-3.99,3.73-7.27,7.91-8.96C19.87,2.17,21.33.97,22.9,0c.21,0,.41,0,.62,0ZM23.28,20.27c0-.14,0-.28,0-.42-3.08.14-6.16.27-9.23.44-.43.02-1.06.12-1.25.41-.66,1.02-1.31,2.1-1.69,3.24-.19.57.02,1.46.37,2,1.26,1.98,2.7,3.86,4,5.82,1.4,2.12,3.19,3.77,5.58,4.67,2.15.81,4.32.86,6.09-.75,2.08-1.9,4.11-3.9,5.92-6.06,1.97-2.34,2.63-5.12,1.37-8.06-.24-.56-1.04-1.22-1.61-1.24-3.18-.12-6.36-.06-9.55-.06ZM29.89,15.67c.09-.19.17-.38.26-.58.49-.13.98-.28,1.47-.39.55-.12,1.12-.15,1.66-.31,1.7-.49,2.07-1.23,1.45-2.86-1.12-2.96-3.14-5.18-5.84-6.75-.55-.32-1.57-.58-1.93-.31-.54.42-.96,1.34-.97,2.06-.05,2.56.12,5.13.11,7.69,0,.44-.45.89-.7,1.33-.28-.45-.79-.9-.8-1.36-.07-2.88-.03-5.76-.02-8.65,0-.57.13-1.18-.05-1.68-.2-.55-.69-1-1.06-1.49-.37.43-.88.81-1.08,1.31-.22.55-.18,1.21-.19,1.83-.02,2.88,0,5.77-.05,8.65,0,.47-.38.93-.58,1.4-.25-.43-.7-.86-.71-1.3-.07-2.35.05-4.71-.06-7.05-.04-.84-.3-2.15-.83-2.38-.78-.34-2.15-.22-2.81.29-1.4,1.08-2.62,2.45-3.69,3.88-2.27,3.03-2.3,5.11,2.14,5.79.42.06.78.5,1.17.77-.45.24-.88.64-1.36.7-1.32.17-2.68.12-3.99.33-.8.13-1.55.6-2.32.92.06.12.11.24.17.37h27.54c.03-.16.06-.32.09-.48-.58-.18-1.15-.45-1.75-.53-1.17-.15-2.37-.11-3.53-.32-.62-.11-1.18-.57-1.77-.87ZM23.41,45.66c.36-.15.73-.21,1-.42,1.54-1.2,3.06-2.41,4.56-3.65.97-.81,1.1-1.78.43-2.87-.68-1.11-1.59-1.31-2.77-.86-2.1.8-4.21.76-6.31-.03-.33-.13-.76-.34-1.03-.22-.74.32-1.72.62-2.03,1.23-.31.61-.25,1.89.19,2.33,1.52,1.51,3.28,2.79,4.96,4.12.26.21.65.25,1,.38ZM27.1,48.28c.11-.03.3-.02.4-.11,1.68-1.45,3.37-2.9,5-4.41.17-.16.07-.89-.15-1.1-.27-.26-.96-.48-1.18-.32-1.75,1.3-3.51,2.6-5.08,4.09-.7.66,0,1.82,1.01,1.84ZM20.96,46.89c-.03-.1-.02-.24-.08-.29-1.83-1.44-3.64-2.9-5.52-4.28-.16-.12-.84.17-1.02.44-.17.25-.17.9.03,1.09,1.56,1.46,3.13,2.94,4.82,4.23.71.54,1.83-.31,1.77-1.19Z"></path>
    <path class="cls-1" d="M14.55,61.82c.04-1.95.03-3.91.17-5.85.04-.54.52-1.05.8-1.57.26.49.71.98.74,1.49.23,3.92.21,3.92,4.12,3.92,9.42,0,18.85,0,28.27,0,2.52,0,4.3-1.39,4.88-3.68.49-1.94-.44-4.12-2.24-5.15-.44-.25-.95-.55-1.42-.55-1.78.01-1.85-1.03-1.82-2.42.07-3.91-.02-7.83.05-11.74.02-1.35-.44-1.83-1.79-1.79-2.31.08-4.64.06-6.95-.02-.48-.02-.94-.51-1.41-.78.48-.27.95-.75,1.43-.77,2.16-.09,4.32-.03,6.49-.04,2.18,0,2.2-.03,2.2-2.28,0-.41,0-.82,0-1.24.02-1.68.35-1.94,2.05-1.64,3.13.57,5.31,3.18,5.36,6.83.09,6.74.09,13.49,0,20.24-.05,3.51-1.88,5.6-5.36,6.65-.23.07-.43.26-.64.4H14.55ZM53.6,50.07c0-5.77.08-11.26-.05-16.76-.05-1.96-1.81-3.46-3.62-3.55-.07.27-.22.56-.22.85-.02,5.61-.03,11.22,0,16.83,0,.39.24.97.55,1.15.97.54,2.03.92,3.33,1.49Z"></path>
  </g>
</svg>
