<?xml version="1.0" encoding="UTF-8"?>
<svg xmlns="http://www.w3.org/2000/svg" id="Capa_2" viewBox="0 0 63.64 55.15">
  <defs>
    <style>.cls-1{fill:#0071ce;stroke-width:0px;}</style>
  </defs>
  <g id="Capa_3">
    <path class="cls-1" d="M0,27.7v-.64c.97-1.23,2.24-1.59,3.77-1.48,1.32.1,2.65.01,3.97.01.86,0,1.72,0,3.02,0-.57-.87-.81-1.32-1.12-1.72-.91-1.18-1.86-2.32-2.75-3.5-1.02-1.35-1-2.61-.01-3.38,1.03-.81,2.12-.56,3.26.83,1.74,2.14,3.36,4.38,5.2,6.42.62.69,1.74,1.21,2.67,1.27,2.69.17,5.4.07,8.11.05.54,0,1.08-.16,1.62-.25-.03-.37,0-.55-.06-.68-1.68-2.95-3.31-5.92-5.1-8.79-.34-.55-1.31-.86-2.03-.99-2.7-.49-5.43-.84-8.14-1.29-1.64-.27-2.33-1.18-2.06-2.58.24-1.23,1.23-1.7,2.86-1.45,1.91.29,3.83.52,6.11.82-.4-.84-.61-1.36-.87-1.85-1.04-1.91-2.14-3.78-3.12-5.71-.49-.96-.29-1.89.7-2.48.98-.59,1.87-.34,2.53.51.55.71,1,1.49,1.47,2.26.97,1.6,1.92,3.22,3.08,5.17.5-1.09.84-1.79,1.14-2.49.61-1.41,1.14-2.86,1.84-4.22.48-.94,1.36-1.34,2.42-.86,1.01.45,1.41,1.27,1.2,2.33-.11.57-.33,1.12-.55,1.65-.93,2.31-1.96,4.58-2.76,6.94-.26.78-.19,1.88.17,2.62.97,2,2.16,3.89,3.28,5.81.65,1.12,1.32,2.23,2.06,3.45,3.03-5.13,4.18-10.32,2.42-16.01.18-.11.37-.23.55-.34,3.2,1.52,6.4,3.03,10.01,4.75-.85-.98-1.36-2.01-2.18-2.44-2.6-1.37-5.32-2.53-7.99-3.76-.46-.21-.91-.43-1.37-.64.06-.14.13-.27.19-.41,3.99.82,7.78,2.15,11.08,4.77-.49-1.79-1.72-2.92-3.19-3.57-2.65-1.17-5.42-2.06-8.12-3.1-.35-.14-.91-.45-.9-.66.01-.4.29-1.04.6-1.14,1.03-.33,2.17-.75,3.19-.61,4.95.67,8.76,3.32,11.63,7.31,3.99,5.54,4.12,13.94-1.86,18.41-.16.12-.2.41-.39.83,3.76-.26,6.88-1.69,10.21-3.77.09,4.19.56,8-.54,11.86.81-.98,1.66-2.03,1.77-3.15.28-2.98.23-5.99.33-8.98.01-.37.12-.74.19-1.11.14.02.27.04.41.06.7,4.16.84,8.31-.24,12.53.86-1.15,1.75-2.36,1.86-3.64.25-2.93.08-5.89.15-8.84.02-.61.35-1.2.54-1.81.6.26,1.3.39,1.76.8.45.39.69,1.05.94,1.62.28.67.47,1.38.7,2.07v1.27c-.15.44-.38.86-.45,1.31-1.78,10.9-14.38,17.19-23.12,12.76-.35-.18-.75-.27-1.47-.52,1.34,3.37,3.79,5.32,6.41,7.36-3.46,1.71-6.91,2.58-10.59,2.93,1.42.46,2.89.88,4.24.64,2.38-.43,4.68-1.27,7.01-1.93.58-.16,1.17-.28,1.76-.41.03.15.06.3.08.45-3.67,1.75-7.44,3.13-11.67,3.23.66.41,1.34.68,2.04.74,3.84.35,7.28-1.01,10.7-2.5.5-.22,1.21.07,1.83.13-.08.63.08,1.51-.28,1.85-.89.86-1.93,1.71-3.06,2.15-4.49,1.74-9.01,1.38-13.51-.1-1.18-.39-1.64-1.01-1.62-2.31.07-5.83.03-11.67.03-17.5,0-.54-.06-1.08-.12-2.11-.57.78-.88,1.12-1.11,1.51-1.39,2.38-2.73,4.79-4.16,7.15-.61,1-.69,1.89-.22,2.98,1.01,2.33,1.91,4.71,2.82,7.09.8,2.09.51,3.19-.91,3.73-1.26.48-2.16-.21-3-2.3-.65-1.6-1.29-3.2-2.07-5.14-.59.8-.96,1.23-1.25,1.71-1.01,1.68-1.95,3.4-2.99,5.06-.67,1.06-1.61,1.81-2.92,1.03-1.29-.77-1.13-1.93-.52-3.05.97-1.77,2-3.49,2.98-5.25.26-.46.41-.99.76-1.84-2.36.36-4.33.66-6.3.96-1.43.22-2.56-.47-2.81-1.7-.23-1.14.55-2.11,1.99-2.36,1.98-.35,3.95-.79,5.95-.92,2.86-.19,5.12-1.05,6.13-4,.22-.64.67-1.2,1.01-1.8.88-1.55,1.76-3.1,2.79-4.92-.98-.16-1.63-.34-2.28-.35-2.33-.04-4.67.06-7-.06-1.78-.1-3,.52-4.04,1.95-1.53,2.09-3.2,4.09-4.85,6.1-.81.99-1.85,1.24-2.95.5-.96-.64-1.07-1.95-.23-3.11.84-1.16,1.76-2.26,2.64-3.38.37-.47.72-.96,1.26-1.69-.89-.15-1.44-.3-2-.31-1.64-.04-3.29-.13-4.93,0-1.64.12-2.9-.27-3.66-1.81ZM34.88,28.05c.01-1.82-1.23-3.06-3.07-3.05-1.78,0-2.98,1.18-3.01,2.94-.04,1.87,1.15,3.12,2.98,3.14,1.84.02,3.1-1.2,3.11-3.03Z"></path>
  </g>
</svg>
