<?xml version="1.0" encoding="UTF-8"?>
<svg xmlns="http://www.w3.org/2000/svg" id="Capa_2" viewBox="0 0 60.6 61.15">
  <defs>
    <style>.cls-1{fill:#0971c3;stroke-width:0px;}</style>
  </defs>
  <g id="Capa_3">
    <path class="cls-1" d="M0,61.15c.05-.61.15-1.22.15-1.83,0-8.19.04-16.38-.02-24.57-.01-1.47.39-1.96,1.9-1.93,4.84.09,9.68-.01,14.52.06,1.44.02,1.89-.49,1.85-1.88-.08-2.68.01-5.36-.04-8.03-.02-1.08.24-1.58,1.45-1.58,7.21.04,14.42.03,21.63,0,.96,0,1.43.27,1.39,1.32-.06,1.49.06,2.99-.07,4.48-.04.46-.64.87-.99,1.31-.37-.42-.99-.81-1.06-1.27-.16-1.1-.05-2.24-.05-3.49-.59-.06-1.04-.13-1.48-.13-2.83-.01-5.67.06-8.5-.04-1.35-.05-1.68.52-1.68,1.71.03,4.27,0,8.55,0,12.82,0,.41-.02.82,0,1.24.04.93-.39,1.29-1.31,1.27-1.85-.03-3.71.07-5.56-.03-1.33-.08-1.7.43-1.61,1.68.09,1.44.1,2.89,0,4.32-.1,1.33.31,1.81,1.71,1.77,3.81-.09,7.62-.03,11.43-.03.41,0,.89-.09,1.22.08.4.21.94.65.95.99,0,.34-.53.8-.93,1.01-.33.18-.8.09-1.22.09-3.76,0-7.52,0-11.28,0-.55,0-1.11.05-1.7.07-.11.72-.09,1.36-.33,1.9-.18.41-.67.67-1.02,1-.33-.4-.9-.78-.93-1.2-.12-1.43-.12-2.88-.04-4.32.07-1.29-.31-1.99-1.72-1.79-.3.04-.69.1-.91-.04-.42-.28-.74-.7-1.1-1.07.37-.35.68-.86,1.12-1,.75-.24,1.99.01,2.27-.43.44-.67.29-1.76.31-2.67.03-1.54-.02-3.09.01-4.63.02-.9-.32-1.3-1.27-1.28-2.21.04-4.43.05-6.64,0-1.03-.02-1.35.4-1.34,1.37.03,2.68-.03,5.36.02,8.03.02,1.06-.34,1.49-1.43,1.45-1.39-.06-2.78.01-4.17-.02-.85-.02-1.21.35-1.21,1.19.01,3.5.02,7,0,10.51,0,1.21.75,1.27,1.65,1.27,5.56,0,11.12,0,16.69,0,6.08,0,12.16-.03,18.23.02,1.34.01,1.79-.4,1.77-1.76-.07-4.99-.06-9.99,0-14.99.01-1.13-.31-1.59-1.48-1.51-1.28.08-2.59.12-3.85-.04-.52-.06-.96-.69-1.44-1.07.49-.35.94-.94,1.46-1,1.27-.15,2.57-.1,3.86-.04,1.05.04,1.53-.31,1.45-1.42-.06-.82-.14-1.68.03-2.46.13-.6.6-1.51,1.03-1.57,1.04-.15,1.1.8,1.1,1.61,0,6.08-.01,12.15,0,18.23,0,2.78.09,5.55.14,8.33H0ZM20.57,23.61c0,4.78-.02,9.33.04,13.89,0,.31.58.85.91.87,1.43.1,2.88.14,4.3-.01.43-.05,1.13-.76,1.13-1.18.08-4.16.08-8.31,0-12.47,0-.37-.67-1.02-1.07-1.05-1.68-.12-3.37-.05-5.33-.05ZM2.34,39.59c0,.31,0,.62,0,.93.11,4.45-.83,3.71,4.17,3.79.88.02,1.22-.4,1.23-1.19.01-2.31,0-4.63,0-6.94,0-.81-.38-1.18-1.25-1.16-5.01.12-4.03-.74-4.15,3.95,0,.21,0,.41,0,.62Z"></path>
    <path class="cls-1" d="M5.69,23.02c-1.07.86-2.14,1.72-3.2,2.58-.57.46-1.17,1.03-1.86.26-.76-.85-.04-1.41.54-1.91,7.24-6.1,14.5-12.19,21.75-18.28,2.05-1.72,4.12-3.42,6.14-5.17.7-.61,1.2-.7,1.98-.06,9.54,7.85,19.1,15.66,28.65,23.5.59.48,1.35,1.03.6,1.9-.74.86-1.38.17-1.98-.3-1.11-.87-2.21-1.75-3.32-2.63-.14.06-.29.13-.43.19,0,.58,0,1.17,0,1.75,0,8.7,0,17.4,0,26.1,0,.46.12.99-.06,1.37-.21.45-.68.77-1.04,1.15-.35-.39-.82-.72-1.02-1.17-.17-.39-.06-.91-.06-1.37,0-9.52-.02-19.05.02-28.57,0-1.21-.39-1.97-1.32-2.73-6.6-5.35-13.16-10.74-19.69-16.16-.97-.8-1.58-.87-2.6,0-6.62,5.65-13.29,11.23-19.97,16.79-.87.72-1.32,1.47-1.26,2.62.08,1.49.06,2.99-.02,4.48-.02.36-.42.7-.64,1.05-.22-.36-.6-.7-.62-1.07-.07-1.39-.03-2.79-.03-4.19-.19-.04-.38-.09-.57-.13Z"></path>
  </g>
</svg>
