<?xml version="1.0" encoding="UTF-8"?>
<svg xmlns="http://www.w3.org/2000/svg" id="Capa_2" viewBox="0 0 63.64 56.11">
  <defs>
    <style>.cls-1{fill:#0071ce;stroke-width:0px;}</style>
  </defs>
  <g id="Capa_3">
    <path class="cls-1" d="M0,25.89c3.73-3.04,7.47-6.07,11.15-9.17.44-.37.72-1.16.74-1.77.09-2.01.03-4.03.04-6.04,0-.42-.07-.9.1-1.25.17-.37.6-.61.91-.91.2.34.55.67.56,1.01.06,1.59.03,3.18.04,4.77,0,.52.05,1.03.1,1.92.82-.55,1.43-.89,1.97-1.32,5-4.09,10.03-8.16,14.97-12.34,1.25-1.05,2-1.07,3.29.03,9.78,8.38,19.64,16.66,29.48,24.96.07.06.19.07.29.1v.64c-1.05,1.13-1.97.77-2.96-.15-.95-.88-2-1.66-3.01-2.48-.18.06-.36.12-.54.17,0,.96.07,1.93-.03,2.88-.05.43-.44.82-.67,1.22-.23-.42-.47-.83-.69-1.26-.04-.08-.03-.21-.01-.31.63-3.34-.95-5.44-3.49-7.47-6.21-4.95-12.22-10.16-18.26-15.32-1.2-1.03-1.99-1.33-3.42-.12-6.72,5.68-13.56,11.2-20.39,16.74-1,.81-1.4,1.69-1.39,2.98.05,9.38.02,18.76.03,28.15,0,2.05.08,2.12,2.17,2.13,9.06,0,18.12,0,27.19,0,.53,0,1.09-.1,1.58.05.43.13,1.12.61,1.08.82-.09.47-.48.99-.89,1.26-.36.22-.92.15-1.39.15-10.07,0-20.14-.02-30.21.03-1.38,0-1.83-.39-1.82-1.8.05-9.44.03-18.87.03-28.31,0-.61,0-1.21,0-2.34-1.5,1.19-2.65,2-3.67,2.95-1,.92-1.89,1.05-2.85.03,0-.21,0-.42,0-.64Z"></path>
    <path class="cls-1" d="M38.39,30c3,3,5.9,5.92,8.85,8.88-.68,1.24-1.65,1.76-3.19,1.12-1.01-.42-2.12-.7-3.21-.85-.47-.06-1.21.24-1.44.61-.19.31.07,1.08.37,1.45,1.72,2.09,3.4,4.21,5.32,6.11.82.81,2.16,1.09,3.27,1.59.53.24,1.1.4,1.59.7,1.33.8,1.6,1.9.51,3.02-1.13,1.16-2.47,2.13-3.78,3.1-1.08.79-1.78.26-2.11-.88-.34-1.16-.58-2.35-.94-3.51-.25-.8-.48-1.7-.99-2.32-1.75-2.11-3.62-4.12-5.48-6.21-1.65,1.39-3.1,2.71-4.66,3.86-.73.54-1.62,1.65-2.62.65-1.03-1.03.19-1.86.7-2.58.98-1.37,2.21-2.57,3.23-3.92.28-.37.43-1.23.21-1.53-1.24-1.64-2.64-3.17-3.96-4.76-.65-.78-1.22-.89-2.14-.29-4.02,2.64-3.14,2.92-6.63-1.02-1.3-1.46-2.51-3.03-3.54-4.68-.45-.71-.64-1.83-.45-2.65.43-1.84,1.14-3.62,1.81-5.4.56-1.46,1.75-2.11,3.26-2.07,1.74.05,3.5.11,5.21.39.76.12,1.61.65,2.11,1.25,1.65,1.93,3.16,3.98,4.71,5.99.61.79.57,1.54-.18,2.25-.58.54-1.07,1.2-1.69,1.68-1.34,1.03-1.2,2.03-.15,3.15,1.3,1.39,2.54,2.85,3.87,4.22.29.3,1.1.58,1.26.42.35-.33.66-.97.59-1.43-.16-1.09-.44-2.19-.86-3.21-.62-1.47-.14-2.42,1.15-3.13ZM44.72,52.47c.02,1.43.66,2.26,1.69,2.2,1.18-.06,4.04-2.61,3.58-3.31-.58-.87-1.74-1.55-2.78-1.87-.98-.3-2.51,1.71-2.49,2.98Z"></path>
    <path class="cls-1" d="M45.8,21.71c2.14,2.11,4.04,3.99,5.91,5.84-1.54,1.64-3.12,3.32-4.71,5.01.16.18.31.37.47.55.54-.34,1.07-.69,1.63-1.01,1.33-.76,2.63-1.59,4.04-2.19.43-.18,1.21.21,1.69.55.14.1-.07,1.06-.38,1.36-1.68,1.67-3.44,3.27-5.08,4.8-3.02-3.01-5.93-5.92-9.05-9.04,1.77-1.9,3.65-3.92,5.48-5.88Z"></path>
  </g>
</svg>
