<?xml version="1.0" encoding="UTF-8"?>
<svg xmlns="http://www.w3.org/2000/svg" id="Capa_2" viewBox="0 0 61.82 55.09">
  <defs>
    <style>.cls-1{fill:#0971c3;stroke-width:0px;}</style>
  </defs>
  <g id="Capa_3">
    <path class="cls-1" d="M61.82,3.71c-.56-.05-1.12-.14-1.68-.14-8.79,0-17.59,0-26.38,0-2.18,0-2.42.36-1.8,2.62.56.11,1.14.21,1.71.32l-.04.3h-5.45c-.01-.1-.02-.2-.03-.3.57-.11,1.14-.21,1.7-.32.63-2.27.39-2.62-1.8-2.62-8.79,0-17.59,0-26.38,0-.56,0-1.12.09-1.68.14V0c.51.05,1.01.15,1.52.15,19.59,0,39.19,0,58.78,0,.51,0,1.01-.1,1.52-.15v3.71Z"></path>
    <path class="cls-1" d="M36.67,46.6c.67-1.11,1.35-2.23,1.98-3.28,1.85,3,.84,7.8-2.24,10.06-3.67,2.7-9.58,2.11-12.36-1.24-2.68-3.22-2.29-8.4.9-11.53.24.39.4.91.74,1.11.53.31,1.35.7,1.75.49.62-.33,1.27-1.09,1.39-1.76.21-1.19.03-2.46,0-3.69-.04-2.1,1-3.72,3.16-4.79-.8,2.07,0,3.62,1.27,5.12,1.78,2.08,3.51,4.24,3.07,7.28-.09.64-.19,1.28-.28,1.92.21.1.41.2.62.3Z"></path>
    <path class="cls-1" d="M33.69,9.8v2.32c-.74-.63-1.18-1-1.62-1.37-.38.47-.76.93-1.15,1.4-.36-.43-.73-.87-1.16-1.38-.38.31-.86.69-1.66,1.34-.04-.9-.07-1.41-.1-2.17-.6.41-1.08.81-1.63,1.08-.26.13-.65.03-.97.03.05-.32-.01-.71.15-.95,1.03-1.48,2.08-1.74,2.99-.81,1.91-1.14,3.08-1.14,4.56.01.98-.83,3.08-.13,3.41,1.16.05.17,0,.51-.09.55-.25.1-.62.21-.82.1-.57-.31-1.09-.73-1.91-1.31Z"></path>
    <path class="cls-1" d="M22.1,14.1c-.04.33-.02.4-.05.43-1.51,1.35-3.02,2.7-4.55,4.01-.06.05-.53-.18-.56-.33-.05-.26,0-.67.17-.83,1.29-1.16,2.6-2.3,3.96-3.38.2-.16.68.05,1.03.09Z"></path>
    <path class="cls-1" d="M40.23,13.77c.21.08.38.1.49.19,1.33,1.12,2.67,2.22,3.95,3.4.2.18.07.71.1,1.07-.32-.04-.74.04-.95-.13-1.26-1.04-2.49-2.12-3.69-3.23-.21-.2-.26-.61-.29-.94-.01-.11.27-.25.4-.36Z"></path>
    <path class="cls-1" d="M13.8,21.61c-.24.32-.41.63-.66.86-1.1.98-2.21,1.97-3.37,2.89-.29.23-.79.19-1.2.27.1-.39.07-.91.31-1.14,1.14-1.09,2.35-2.11,3.57-3.12.23-.19.63-.23.96-.25.11,0,.23.28.39.48Z"></path>
    <path class="cls-1" d="M53.51,25.19c-.13.19-.23.46-.36.48-.28.04-.66.05-.85-.1-1.31-1.08-2.6-2.19-3.85-3.34-.2-.19-.17-.63-.24-.95.36,0,.85-.14,1.07.04,1.28,1.03,2.51,2.13,3.75,3.22.18.16.3.4.48.65Z"></path>
    <path class="cls-1" d="M31.98,17.82c-.36.76-.71,1.51-1.07,2.27-.26-.8-.59-1.59-.75-2.41-.11-.59-.08-1.25.06-1.84.07-.31.5-.53.76-.79.22.26.57.5.62.78.1.6.03,1.23.03,1.84.12.05.23.09.35.14Z"></path>
    <path class="cls-1" d="M23.44,18.75c-.06-.45-.27-.91-.12-1.15.66-1.08,1.4-2.13,2.17-3.13.16-.2.6-.23.92-.24.07,0,.29.5.21.62-.81,1.23-1.66,2.43-2.51,3.63-.07.1-.27.12-.67.27Z"></path>
    <path class="cls-1" d="M38.3,18.95c-.55-.47-.82-.63-.99-.87-.65-.91-1.31-1.82-1.88-2.78-.16-.27-.05-.72-.06-1.08.35.1.84.09,1.02.32.76.96,1.46,1.96,2.08,3.01.15.26-.08.75-.17,1.4Z"></path>
    <path class="cls-1" d="M22.14,21.71c-.95,1.25-1.86,2.47-2.82,3.66-.08.1-.6.04-.66-.08-.12-.23-.17-.62-.05-.81.69-1.08,1.42-2.14,2.19-3.16.14-.19.53-.29.78-.26.17.02.3.34.56.66Z"></path>
    <path class="cls-1" d="M40.18,20.79c.41.22.65.27.75.41.8,1.13,1.6,2.26,2.34,3.42.1.15-.07.66-.24.74-.21.09-.66,0-.79-.19-.8-1.06-1.57-2.15-2.27-3.28-.13-.21.11-.64.21-1.1Z"></path>
    <path class="cls-1" d="M32.04,24.75c-.46.68-.79,1.17-1.11,1.65-.26-.58-.72-1.15-.73-1.74-.01-.53.45-1.07.71-1.6.35.52.7,1.04,1.14,1.69Z"></path>
    <path class="cls-1" d="M3.02,31.21c-.32-.29-.6-.51-.58-.53.42-.64.81-1.33,1.36-1.85.29-.28.87-.26,1.33-.33.03,0,.23.44.17.51-.72.74-1.48,1.45-2.27,2.21Z"></path>
    <path class="cls-1" d="M59.8,30.69c-.28.1-.68.37-.82.27-.85-.59-1.65-1.26-2.44-1.94-.01-.01.49-.69.51-.67.87.56,1.71,1.16,2.55,1.75l.19.59Z"></path>
    <path class="cls-1" d="M16.39,27.49c.42.51.78.84.73.91-.53.88-1.12,1.73-1.73,2.56,0,.01-.64-.38-.62-.41.47-.96.99-1.9,1.62-3.07Z"></path>
    <path class="cls-1" d="M47.48,30.45c-.63.22-.95.41-1.28.41-.17,0-.41-.3-.51-.52-.33-.74-.61-1.51-.9-2.26.18-.06.47-.23.52-.18.66.74,1.29,1.5,2.17,2.55Z"></path>
  </g>
</svg>
