<?xml version="1.0" encoding="UTF-8"?>
<svg xmlns="http://www.w3.org/2000/svg" id="Capa_2" viewBox="0 0 49.27 61.82">
  <defs>
    <style>.cls-1{fill:#0971c3;stroke-width:0px;}</style>
  </defs>
  <g id="Capa_3">
    <path class="cls-1" d="M31.42,0c.22.2.52.36.65.61.35.68,1.02,1.53.83,2.07-.22.65-1.12,1.19-1.84,1.5-.57.25-1.33-.01-1.98.11-.55.1-1.46.37-1.5.66-.11.8-.15,2.05.32,2.41,1.19.91,1.26,2,1.26,3.26.01,5.6-.51,4.55,4.66,4.69,1.54.04,3.1.12,4.6.43,5.08,1.04,8.21,4.89,8.62,10.49.09,1.24-.03,2.55,1.77,2.7.18.01.52.71.45.78-.28.31-.68.68-1.06.7-1.49.08-2.99.04-4.48.04-1.34,0-2.68.05-4.02-.03-.44-.03-.86-.38-1.3-.58.25-.37.5-.76.76-1.12.22-.31.68-.59.68-.88.06-3.01-.71-4.98-4.11-5.09-2.26-.07-4.53-.02-6.8-.02-.36,0-.75.06-1.07-.06-.28-.11-.48-.43-.72-.65.22-.17.45-.5.67-.5,3.19.04,6.39-.06,9.55.25,2.72.26,3.33,2.54,3.7,4.84.36,2.19.38,2.19,2.5,2.19,2.33,0,2.44-.01,2.18-2.29-.81-7.08-4.28-9.6-10.91-9.87-1.44-.06-2.89,0-4.33-.03-1.81-.04-2.6-.83-2.65-2.67-.04-1.18,0-2.37-.01-3.55,0-.36.1-.82-.08-1.06-1.18-1.53-2.85-.59-4.29-.67-.36-.02-1.03.88-1.12,1.43-.18,1.1-.05,2.26-.06,3.39,0,2.55-.61,3.14-3.22,3.15-2.73,0-5.46.05-8.19-.01-1.35-.03-1.94.36-1.91,1.84.07,3.03,0,3.03,2.99,3.04,1.13,0,2.27-.04,3.4.03.34.02.67.31,1,.48-.32.25-.63.69-.96.71-1.59.08-3.19.08-4.79.03-1.04-.03-1.73.17-1.61,1.42.11,1.11-.49,1.46-1.51,1.39-.56-.04-1.14-.05-1.7,0-1.38.13-2.34-.13-2.23-1.84.07-1.03-.68-1.31-1.56-1.21-1.59.18-2.16-.55-2-2.06.06-.56,0-1.13,0-1.7,0-2.49,0-2.53,2.48-2.79,1.06-.11,1.1-.82,1.09-1.53-.01-1.22.55-1.67,1.72-1.58.61.05,1.24.04,1.85,0,1.12-.07,1.92.12,1.91,1.54,0,.31.67.89,1.04.9,3.19.07,6.39.03,9.58.05,1.03,0,1.34-.57,1.34-1.47,0-1.34-.11-2.69.05-4.01.09-.74.43-1.67.98-2.09,1.03-.77.99-1.77.66-2.6-.18-.46-1.2-.64-1.87-.84-.43-.12-.92-.04-1.38-.04-1.09,0-1.93-.38-2.2-1.52-.25-1.06.26-1.77,1.16-2.27C18.66.33,18.85.15,19.05,0c4.12,0,8.24,0,12.37,0ZM25.09,2.93c1.85,0,3.7.03,5.55-.02.33,0,.65-.34.97-.53-.3-.29-.6-.82-.9-.83-3.7-.06-7.39-.06-11.09-.01-.32,0-.64.5-.96.77.35.21.69.58,1.04.6,1.8.06,3.59.03,5.39.03ZM7.73,19.29c.14-1.07-.11-1.77-1.41-1.77-1.15,0-1.53.54-1.52,1.59.01,1.02.17,1.78,1.5,1.75,1.14-.02,1.6-.47,1.44-1.58ZM3.97,18.87c-.47-.56-.89-1.54-1.42-1.61-1.59-.2-1.14,1.19-1.16,2.05-.02.78-.31,1.88,1.11,1.86,1.55-.02.92-1.26,1.47-2.3ZM6.17,24.94c.77-.83,1.39-1.2,1.52-1.7.25-.98-.5-1.15-1.31-1.14-.74.01-1.6-.04-1.47,1,.06.5.62.94,1.26,1.84ZM6.26,16.92c.73-.83,1.33-1.21,1.43-1.7.21-.99-.57-1.12-1.35-1.13-.78,0-1.56.1-1.42,1.07.07.48.65.89,1.34,1.75ZM26.6,5.83c-.72-.68-1.14-1.09-1.57-1.49-.29.44-.76.86-.83,1.33-.1.63-.3,1.65.86,1.51.43-.05.8-.68,1.53-1.35Z"></path>
    <path class="cls-1" d="M15.03,61.82c-.43-.15-.85-.36-1.29-.43-5.19-.81-9.01-5.26-9.1-10.52-.03-1.9.5-3.9-.84-5.65-.21-.27-.14-1.03.1-1.31.98-1.16.75-2.51.76-3.82.01-2.21.03-4.43,0-6.64-.02-1.05.36-1.5,1.44-1.48,1.8.05,3.61.05,5.41,0,1.14-.04,1.56.43,1.54,1.55-.05,2.52-.06,5.05,0,7.57.03,1,.31,1.99.45,2.99.05.35.09.71.06,1.06-.16,1.82-.43,3.63-.51,5.46-.07,1.58.97,2.67,2.33,2.7,1.43.03,2.3-1.09,2.61-2.7.39-1.98.87-4,1.7-5.83.92-2.02,2.74-3.3,4.75-4.24,1.31-.61,2.74-.88,3.76-2.19.77-.99,1.92-.51,2.78.43.49.53,1.11,1.04,1.78,1.3,4.77,1.83,7.46,5.66,7.48,10.78,0,1.24-.07,2.48.03,3.7.06.67.3,1.38.67,1.95.96,1.49.33,3.14-1.47,3.26-2.2.14-4.43.15-6.64,0-1.88-.13-2.48-1.78-1.38-3.38.73-1.05.87-6.01.15-7.02-.17-.23-.55-.41-.85-.42-1.14-.05-2.28-.02-3.42-.02-.1-.15-.2-.3-.3-.45-.24.66-.65,1.31-.71,1.99-.31,3.83-1.58,7.17-4.99,9.26-1.24.76-2.73,1.12-4.11,1.65-.42.16-.85.3-1.28.45h-.93ZM27.21,40.74c-.97.28-1.63.39-2.21.66-3.94,1.84-5.74,5.09-6.08,9.31-.06.74-.25,1.55-.63,2.16-.84,1.32-2.45,1.77-3.97,1.3-1.41-.43-2.4-1.91-2.54-3.72-.1-1.24.17-3-.52-3.58-.77-.65-2.44-.25-3.73-.3-.15,0-.31.01-.46,0-.98-.05-1.44.43-1.4,1.39.07,1.49.11,2.98.25,4.46.35,3.65,4.13,8.4,10.27,8.03,4.39-.27,8.63-4.2,8.83-8.62.08-1.78.36-3.35,1.79-4.56.21-.18.36-.53.37-.81.03-1.79.02-3.57.02-5.72ZM39.27,52.34c0-.62.02-1.24,0-1.85-.16-4.19-2.69-7.88-6.37-9.2-.4-.14-1.35.12-1.36.2-.02,1.99-.56,4.28.26,5.88.98,1.91,1.34,3.67,1.34,5.69,0,3.05-.36,2.73,2.7,2.72,3.85-.02,3.4.6,3.44-3.44ZM11.78,37.91v-.62c0-4.69,0-4.67-4.72-4.34-.98.07-1.39.47-1.39,1.42.01,2.37,0,4.74,0,7.1,0,.89.41,1.32,1.32,1.3,1.18-.03,2.37-.03,3.55,0,.94.02,1.27-.41,1.24-1.32-.05-1.18-.01-2.37,0-3.55ZM30.31,43.62s0,0,0,0c0-1.13.08-2.27-.04-3.39-.05-.45-.57-.84-.87-1.25-.37.35-1.06.69-1.07,1.06-.09,2.41-.09,4.82.01,7.23.02.35.72.68,1.1,1.02.29-.38.78-.73.82-1.13.11-1.17.04-2.36.04-3.54ZM36.24,58.56c1.03,0,2.07.06,3.09-.04.34-.03.64-.48.96-.73-.26-.27-.51-.75-.78-.76-2.2-.08-4.41-.1-6.62-.04-.31,0-.6.55-.9.84.34.24.66.67,1.01.7,1.07.09,2.16.03,3.24.03ZM8.56,45.56s0,0,0,.01c.92,0,1.85.08,2.75-.04.39-.05.73-.52,1.1-.8-.33-.32-.64-.9-.99-.91-1.89-.09-3.78-.08-5.66,0-.33.01-.65.52-.97.8.34.31.65.83,1.02.89.9.13,1.83.04,2.75.04Z"></path>
    <path class="cls-1" d="M39.96,36.84c.99-1.63,1.78-2.98,2.64-4.27.09-.13.86-.06.99.14.71,1.06,1.55,2.13,1.87,3.32.2.76-.18,2.02-.77,2.54-.58.52-1.85.76-2.59.49-.79-.29-1.32-1.31-2.15-2.22Z"></path>
    <path class="cls-1" d="M24.39,22.27c-.51.15-1.01.4-1.52.43-.97.06-1.94.03-2.91-.04-.22-.02-.49-.32-.61-.56-.05-.09.25-.52.4-.52,1.52-.04,3.04-.02,4.55-.02.03.24.05.48.08.72Z"></path>
  </g>
</svg>
