<?xml version="1.0" encoding="UTF-8"?>
<svg xmlns="http://www.w3.org/2000/svg" id="Capa_2" viewBox="0 0 52.44 61.82">
  <defs>
    <style>.cls-1{fill:#0971c3;stroke-width:0px;}</style>
  </defs>
  <g id="Capa_3">
    <path class="cls-1" d="M.84,61.82c-1.03-.64-.96-1.48-.62-2.51,2.99-8.92,5.98-17.85,8.88-26.8.47-1.44.5-3.02.8-4.53.19-.97.55-1.9.72-2.88.12-.67.13-1.39,0-2.06-.17-.97-.7-1.91-.72-2.87-.08-3.55.03-7.11-.04-10.66-.03-1.44.4-2.16,1.93-1.96.46.06.99.14,1.37-.04.44-.21.99-.66,1.06-1.08.16-.95.1-1.95.04-2.93-.09-1.52.36-2.72,1.71-3.51h2.78c1.57,1.14,1.46,2.8,1.4,4.45-.02.57.04,1.14,0,1.7-.09,1.09.43,1.49,1.46,1.42.62-.04,1.26-.11,1.85.04.47.12,1.21.53,1.23.85.08,1.31.89,1.28,1.82,1.28,2.65.01,2.65.03,2.65,2.63,0,2.06,0,4.12,0,6.18-.01,1.83-.18,1.99-2.07,2.01-.41,0-.82,0-1.24,0-.2,0-.43,0-.61.09-1.02.53-1.7,3.79-1.06,4.76.29.44.6,1.01.57,1.5-.17,3.12.76,5.99,1.76,8.87.85,2.43,1.68,4.86,2.41,7.33.17.58-.14,1.29-.23,1.94-.46-.46-1.13-.83-1.33-1.38-1.21-3.39-2.31-6.82-3.45-10.23-.64-1.9-.76-1.96-2.92-1.53.12.48.2.98.35,1.44,2.74,8.3,5.49,16.61,8.24,24.9.56,1.68.96,1.84,2.94,1.15-.56-1.73-1.12-3.48-1.68-5.22-.13-.39-.37-.79-.34-1.17.02-.34.26-.85.53-.95.24-.09.87.19.96.43.93,2.61,1.84,5.24,2.62,7.9.11.37-.46.94-.71,1.42h-4.33c-.46-.72-1.07-1.38-1.34-2.17-2.23-6.57-4.4-13.17-6.59-19.75-.2-.6-.49-1.16-.73-1.74-.4.6-.45,1.13-.45,1.67,0,6.49.04,12.98-.05,19.47-.01.85-.67,1.69-1.04,2.53h-4.02c-.92-.5-1.13-1.29-1.12-2.31.03-6.52.01-13.05,0-19.57,0-.58-.08-1.15-.13-1.73l-.44-.08c-.22.52-.48,1.03-.66,1.57-2.22,6.62-4.41,13.24-6.65,19.85-.27.8-.8,1.51-1.21,2.27H.84ZM22.94,9.44c-3.64,0-7.03-.03-10.42.05-.34,0-.93.76-.94,1.18-.08,2.98-.04,5.97-.05,8.96,0,.8.27,1.25,1.16,1.24,3.09-.02,6.18.02,9.27-.05.33,0,.93-.53.93-.83.07-3.44.04-6.88.04-10.55ZM2.16,59.59c1.71.51,2.45-.04,2.91-1.44,2.72-8.3,5.5-16.58,8.25-24.87.14-.43.22-.87.32-1.31-2.04-.57-2.36-.43-2.95,1.35-2.68,8.05-5.35,16.1-8.01,24.15-.22.66-.34,1.36-.52,2.12ZM16.15,45.58c0,4.22,0,8.44,0,12.65,0,.79-.08,1.55,1.12,1.56,1.16.02,1.36-.56,1.36-1.54-.02-8.38-.02-16.77,0-25.15,0-.89-.14-1.44-1.25-1.45-1.12-.02-1.24.53-1.23,1.43.03,4.17.01,8.33.01,12.5ZM17.27,29.81c1.49,0,2.98-.03,4.46.01.95.03,1.23-.41,1.23-1.3,0-.85-.2-1.39-1.17-1.39-3.03,0-6.05,0-9.08,0-.95,0-1.19.55-1.19,1.4,0,.91.37,1.3,1.29,1.29,1.49-.03,2.98,0,4.46,0ZM17.44,22.74c-1.18,0-2.36.02-3.54,0-.88-.02-1.16.4-1.15,1.23,0,.76.11,1.36,1.02,1.37,2.36.02,4.72.02,7.09,0,.94-.01,1.17-.63,1.13-1.47-.04-.88-.52-1.14-1.3-1.13-1.08.02-2.16,0-3.24,0ZM18.92,4.61c0-.41-.02-.82,0-1.23.08-1.13-.19-1.88-1.55-1.91-1.41-.04-1.79.69-1.75,1.91.02.82.03,1.64,0,2.46-.06,1.2.34,1.76,1.67,1.75,1.32,0,1.76-.53,1.64-1.75-.04-.41,0-.82,0-1.23ZM27.55,15.21c0-.72-.02-1.44,0-2.15.04-1-.3-1.5-1.41-1.48-1.04.02-1.33.5-1.31,1.42.03,1.38.02,2.77,0,4.15-.02.93.15,1.56,1.33,1.57,1.13,0,1.44-.52,1.4-1.51-.03-.66,0-1.33,0-2Z"></path>
    <path class="cls-1" d="M34.1,13.78c-.18-.14-.54-.42-.9-.7.46-.39.87-1.01,1.39-1.12,3.36-.7,6.75-1.29,10.12-1.92,2.02-.38,4.02-.82,6.05-1.1.53-.07,1.12.36,1.69.56-.41.38-.78,1-1.25,1.09-5.48,1.09-10.97,2.1-16.46,3.13-.1.02-.2.02-.63.06Z"></path>
    <path class="cls-1" d="M51.27,25.97c-4.53-.85-8.76-1.64-12.98-2.43-1.31-.25-2.63-.44-3.91-.82-.46-.13-.78-.72-1.16-1.1.47-.17.97-.56,1.39-.49,5.54.99,11.08,2.03,16.6,3.12.45.09.8.69,1.2,1.05-.44.25-.88.51-1.15.67Z"></path>
    <path class="cls-1" d="M42.9,18.19c-2.73,0-5.46.05-8.19-.04-.51-.02-1-.56-1.5-.87.5-.25,1-.72,1.5-.72,5.41-.05,10.81-.06,16.22,0,.51,0,1.01.58,1.51.89-.5.25-1,.69-1.51.71-2.68.07-5.35.03-8.03.03Z"></path>
    <path class="cls-1" d="M31.06,48.48c-.58.39-.9.78-1.15.74-.28-.04-.62-.44-.7-.75-.04-.16.4-.64.63-.64.3,0,.62.31,1.22.65Z"></path>
    <path class="cls-1" d="M20.67,17.44c-.56.32-.89.66-1.16.61-.29-.05-.52-.46-.78-.71.27-.25.54-.68.82-.7.27-.02.58.39,1.11.8Z"></path>
    <path class="cls-1" d="M16.23,17.39c-.6.35-.91.65-1.21.65-.23,0-.68-.49-.64-.61.12-.32.42-.71.71-.77.23-.05.56.34,1.13.73Z"></path>
  </g>
</svg>
