<?xml version="1.0" encoding="UTF-8"?>
<svg xmlns="http://www.w3.org/2000/svg" id="Capa_2" viewBox="0 0 209.65 137.11">
  <defs>
    <style>.cls-1{fill:none;stroke:#fff;stroke-miterlimit:10;stroke-width:2.14px;}.cls-2{fill:#fff;stroke-width:0px;}</style>
  </defs>
  <g id="Capa_3">
    <path class="cls-2" d="M28.38,71.52h-2.49l-2.4,15.2h-1.54l2.4-15.2h-2.49l.22-1.41h6.52l-.22,1.41Z"></path>
    <path class="cls-2" d="M34.18,81.06c-.35,2.14-1.19,5.84-4.16,5.84s-2.67-3.7-2.31-5.84c.33-2.12,1.19-5.82,4.16-5.82s2.64,3.7,2.31,5.82ZM29.18,81.06c-.18,1.1-.68,4.5,1.04,4.5s2.31-3.39,2.49-4.5c.15-1.08.66-4.47-1.06-4.47s-2.31,3.39-2.47,4.47Z"></path>
    <path class="cls-2" d="M40.46,85.85h-.04c-.51.64-1.21,1.06-2.03,1.06-2.36,0-2.25-2.86-1.76-5.95.51-3.08,1.23-5.71,3.75-5.71.79,0,1.23.33,1.59.95h.04l1.12-7.09h1.43l-2.8,17.63h-1.43l.13-.88ZM40.5,76.42c-1.61,0-2.12,2.82-2.38,4.43-.15,1.06-.99,4.89.84,4.89,1.52,0,1.96-1.87,2.42-4.85.42-2.58.44-4.47-.88-4.47Z"></path>
    <path class="cls-2" d="M51.89,81.06c-.35,2.14-1.19,5.84-4.16,5.84s-2.67-3.7-2.31-5.84c.33-2.12,1.19-5.82,4.16-5.82s2.64,3.7,2.31,5.82ZM46.89,81.06c-.18,1.1-.68,4.5,1.04,4.5s2.31-3.39,2.49-4.5c.15-1.08.66-4.47-1.06-4.47s-2.31,3.39-2.47,4.47Z"></path>
    <path class="cls-2" d="M60.88,86.73h-1.43l2.8-17.63h1.43l-2.8,17.63Z"></path>
    <path class="cls-2" d="M71.02,81.06c-.35,2.14-1.19,5.84-4.16,5.84s-2.67-3.7-2.31-5.84c.33-2.12,1.19-5.82,4.16-5.82s2.64,3.7,2.31,5.82ZM66.02,81.06c-.18,1.1-.68,4.5,1.04,4.5s2.31-3.39,2.49-4.5c.15-1.08.66-4.47-1.06-4.47s-2.31,3.39-2.47,4.47Z"></path>
    <path class="cls-2" d="M83.6,91.05h-1.43l.82-5.2h-.04c-.51.64-1.21,1.06-2.03,1.06-2.58,0-2.16-3.42-1.76-5.95.42-2.53,1.12-5.71,3.75-5.71.79,0,1.23.33,1.59.95h.04l.11-.77h1.43l-2.47,15.62ZM83.91,80.89c.4-2.56.42-4.47-.88-4.47s-1.94,1.67-2.38,4.43c-.4,2.6-.66,4.89.84,4.89s1.96-1.96,2.42-4.85Z"></path>
    <path class="cls-2" d="M90.5,75.42l-1.12,7.1c-.24,1.54-.4,3.04,1.01,3.04s1.76-1.5,2.03-3.04l1.12-7.1h1.43l-1.3,8.31c-.31,1.89-1.43,3.17-3.46,3.17s-2.75-1.26-2.45-3.17l1.3-8.31h1.43Z"></path>
    <path class="cls-2" d="M98.16,81.37l-.04.33c-.18,1.12-.42,3.86,1.15,3.86,1.26,0,1.72-1.76,1.87-2.67h1.48c-.31,1.72-1.32,4.01-3.42,4.01-2.97,0-2.82-3.53-2.47-5.79.33-2.03,1.39-5.86,4.12-5.86s2.51,3.46,2.18,5.44l-.11.68h-4.76ZM101.67,80.16l.02-.2c.11-1.08.44-3.37-1.06-3.37-1.37,0-2.09,2.56-2.25,3.57h3.28Z"></path>
    <path class="cls-2" d="M116.54,77.89h-.04c-.18-.33-.44-.51-.9-.53-1.79.02-2.23,2.51-2.4,3.7-.18,1.12-.57,3.9,1.17,3.9.46,0,.75-.18,1.12-.42l-.31,1.92c-.57.31-1.12.44-1.74.44-2.93,0-2.75-3.44-2.4-5.64.38-2.29,1.19-5.84,4.23-5.84.62,0,1.08.11,1.61.38l-.33,2.09Z"></path>
    <path class="cls-2" d="M118.28,81.2c.37-2.42,1.23-5.77,4.41-5.77s2.97,3.35,2.6,5.77c-.38,2.33-1.23,5.71-4.41,5.71s-2.97-3.37-2.6-5.71ZM123.17,81.2c.13-.88.82-3.88-.77-3.88s-1.87,3-2,3.88c-.13.79-.82,3.81.77,3.81s1.87-3.02,2-3.81Z"></path>
    <path class="cls-2" d="M130.73,76.88h.04c.31-.46.66-.82,1.04-1.06.42-.26.88-.4,1.43-.4,2.2,0,1.96,1.96,1.7,3.66l-1.21,7.65h-2.07l1.21-7.69c.13-.77.15-1.76-.95-1.76-1.37,0-1.5,1.56-1.65,2.51l-1.1,6.94h-2.07l1.76-11.13h2.07l-.2,1.28Z"></path>
    <path class="cls-2" d="M142.34,77.87c-.35-.35-.95-.59-1.46-.59-.77,0-1.48.44-1.61,1.19-.24,1.87,3.17,1.96,2.67,5.13-.31,1.96-1.72,3.3-3.7,3.3-.73,0-1.17-.15-1.72-.53l.31-2.03c.46.42.9.71,1.61.71.9,0,1.48-.55,1.61-1.41.31-1.96-3.15-2.09-2.67-5.18.29-1.76,1.7-3.04,3.46-3.04.71,0,1.26.13,1.81.49l-.31,1.96Z"></path>
    <path class="cls-2" d="M148.69,72.45l-.51,3.15h1.1l-.26,1.63h-1.1l-1.5,9.5h-2.07l1.5-9.5h-1.12l.26-1.63h1.12l.51-3.15h2.07Z"></path>
    <path class="cls-2" d="M153.51,76.97h.04c.64-.97,1.45-1.54,2.6-1.54l-.31,2.05-.35-.02c-1.54,0-2.16.86-2.4,2.27l-1.1,7.01h-2.09l1.76-11.13h2.07l-.22,1.37Z"></path>
    <path class="cls-2" d="M160.76,75.6l-1.1,6.96c-.15.99-.53,2.45.88,2.45s1.45-1.34,1.61-2.34l1.12-7.07h2.07l-1.19,7.51c-.35,2.29-1.28,3.79-3.81,3.79-3.02,0-3.17-1.7-2.78-4.23l1.12-7.07h2.07Z"></path>
    <path class="cls-2" d="M168.65,86.73h-2.07l1.76-11.13h2.07l-1.76,11.13ZM168.54,72.23c.13-.75.84-1.37,1.61-1.37.73,0,1.28.62,1.15,1.37-.11.77-.86,1.39-1.59,1.39-.77,0-1.28-.62-1.17-1.39Z"></path>
    <path class="cls-2" d="M175.28,76.97h.04c.57-.93,1.37-1.54,2.42-1.54.99,0,1.7.57,1.76,1.54h.04c.59-.97,1.41-1.54,2.53-1.54,1.96,0,2.27,1.21,2.03,2.69l-1.37,8.62h-2.07l1.23-7.8c.13-.82.15-1.65-.86-1.65-1.48,0-1.54,1.39-1.7,2.38l-1.12,7.07h-2.07l1.19-7.56c.13-.88.31-1.89-.88-1.89-1.3,0-1.43,1.43-1.63,2.38l-1.12,7.07h-2.07l1.76-11.13h2.09l-.22,1.37Z"></path>
    <path class="cls-2" d="M186.32,81.2c.37-2.42,1.23-5.77,4.41-5.77s2.97,3.35,2.6,5.77c-.38,2.33-1.23,5.71-4.41,5.71s-2.97-3.37-2.6-5.71ZM191.21,81.2c.13-.88.81-3.88-.77-3.88s-1.87,3-2,3.88c-.13.79-.82,3.81.77,3.81s1.87-3.02,2.01-3.81Z"></path>
    <path class="cls-2" d="M200.73,77.87c-.35-.35-.95-.59-1.45-.59-.77,0-1.48.44-1.61,1.19-.24,1.87,3.17,1.96,2.67,5.13-.31,1.96-1.72,3.3-3.7,3.3-.73,0-1.17-.15-1.72-.53l.31-2.03c.46.42.9.71,1.61.71.9,0,1.48-.55,1.61-1.41.31-1.96-3.15-2.09-2.67-5.18.29-1.76,1.7-3.04,3.46-3.04.71,0,1.26.13,1.81.49l-.31,1.96Z"></path>
    <path class="cls-2" d="M25.76,100.75h-1.87l-1.59,9.98h-1.43l1.59-9.98h-1.21l.2-1.32h1.21l.48-3.08h1.43l-.48,3.08h1.87l-.2,1.32Z"></path>
    <path class="cls-2" d="M27.99,105.37l-.04.33c-.18,1.12-.42,3.86,1.15,3.86,1.26,0,1.72-1.76,1.87-2.67h1.48c-.31,1.72-1.32,4.01-3.42,4.01-2.97,0-2.82-3.53-2.47-5.79.33-2.03,1.39-5.86,4.12-5.86s2.51,3.46,2.18,5.44l-.11.68h-4.76ZM31.49,104.16l.02-.2c.11-1.08.44-3.37-1.06-3.37-1.37,0-2.09,2.56-2.25,3.57h3.28Z"></path>
    <path class="cls-2" d="M37.64,100.92h.04c.44-.79,1.21-1.7,2.16-1.67l-.29,1.67-.26-.02c-1.48,0-1.87,1.43-2.16,3.24l-1.04,6.59h-1.43l1.79-11.3h1.43l-.24,1.5Z"></path>
    <path class="cls-2" d="M43.52,100.37h.04c.62-.66,1.48-1.12,2.33-1.12.93,0,1.63.48,1.87,1.34.73-.84,1.52-1.34,2.56-1.34,2.12,0,2,1.67,1.74,3.35l-1.28,8.13h-1.43l1.28-8.09c.18-1.08.24-2.23-.92-2.23-1.7,0-2.05,1.92-2.27,3.35l-1.1,6.96h-1.43l1.28-8.06c.18-1.06.29-2.25-.88-2.25-1.74,0-2.12,2.16-2.36,3.59l-1.06,6.72h-1.43l1.79-11.3h1.43l-.15.95Z"></path>
    <path class="cls-2" d="M55.31,110.73h-1.43l1.79-11.3h1.43l-1.78,11.3ZM56.76,97.16c-.59,0-1.01-.49-.93-1.08.09-.57.66-1.06,1.26-1.06s.97.48.88,1.06c-.09.59-.64,1.08-1.21,1.08Z"></path>
    <path class="cls-2" d="M61.48,100.33c.68-.66,1.52-1.08,2.4-1.08,2.01,0,1.87,1.85,1.63,3.39l-1.28,8.09h-1.43l1.26-7.93c.22-1.34.29-2.38-.9-2.38-1.63,0-1.98,1.78-2.16,2.97l-1.17,7.34h-1.43l1.79-11.3h1.43l-.13.9Z"></path>
    <path class="cls-2" d="M73.02,110.73h-1.43l.13-.88h-.04c-.51.64-1.21,1.06-2.03,1.06-1.81,0-2.53-1.01-1.76-5.95.42-2.53,1.01-5.71,3.75-5.71.79,0,1.23.33,1.59.95h.04l.11-.77h1.43l-1.79,11.3ZM71.77,100.42c-1.59,0-2.07,2.51-2.38,4.43-.73,4.67,0,4.89.84,4.89,1.39,0,1.85-1.3,2.42-4.85.4-2.45.53-4.47-.88-4.47Z"></path>
    <path class="cls-2" d="M87.81,101.89h-.04c-.18-.33-.44-.51-.9-.53-1.79.02-2.23,2.51-2.4,3.7-.18,1.12-.57,3.9,1.17,3.9.46,0,.75-.18,1.12-.42l-.31,1.92c-.57.31-1.12.44-1.74.44-2.93,0-2.75-3.44-2.4-5.64.38-2.29,1.19-5.84,4.23-5.84.62,0,1.08.11,1.61.38l-.33,2.09Z"></path>
    <path class="cls-2" d="M89.55,105.2c.37-2.42,1.23-5.77,4.41-5.77s2.97,3.35,2.6,5.77c-.38,2.33-1.23,5.71-4.41,5.71s-2.97-3.37-2.6-5.71ZM94.44,105.2c.13-.88.82-3.88-.77-3.88s-1.87,3-2,3.88c-.13.79-.82,3.81.77,3.81s1.87-3.02,2-3.81Z"></path>
    <path class="cls-2" d="M102,100.88h.04c.31-.46.66-.82,1.04-1.06.42-.26.88-.4,1.43-.4,2.2,0,1.96,1.96,1.7,3.66l-1.21,7.65h-2.07l1.21-7.69c.13-.77.15-1.76-.95-1.76-1.37,0-1.5,1.56-1.65,2.51l-1.1,6.94h-2.07l1.76-11.13h2.07l-.2,1.28Z"></path>
    <path class="cls-2" d="M113.61,101.87c-.35-.35-.95-.59-1.45-.59-.77,0-1.48.44-1.61,1.19-.24,1.87,3.17,1.96,2.67,5.13-.31,1.96-1.72,3.3-3.7,3.3-.73,0-1.17-.15-1.72-.53l.31-2.03c.46.42.9.71,1.61.71.9,0,1.48-.55,1.61-1.41.31-1.96-3.15-2.09-2.67-5.18.29-1.76,1.7-3.04,3.46-3.04.71,0,1.26.13,1.81.49l-.31,1.96Z"></path>
    <path class="cls-2" d="M119.95,96.45l-.51,3.15h1.1l-.26,1.63h-1.1l-1.5,9.5h-2.07l1.5-9.5h-1.12l.26-1.63h1.12l.51-3.15h2.07Z"></path>
    <path class="cls-2" d="M124.78,100.97h.04c.64-.97,1.45-1.54,2.6-1.54l-.31,2.05-.35-.02c-1.54,0-2.16.86-2.4,2.27l-1.1,7.01h-2.09l1.76-11.13h2.07l-.22,1.37Z"></path>
    <path class="cls-2" d="M132.03,99.6l-1.1,6.96c-.15.99-.53,2.45.88,2.45s1.45-1.34,1.61-2.34l1.12-7.07h2.07l-1.19,7.51c-.35,2.29-1.28,3.79-3.81,3.79-3.02,0-3.17-1.7-2.78-4.23l1.12-7.07h2.07Z"></path>
    <path class="cls-2" d="M141.06,99.6l.4,7.76h.04l3.11-7.76h2.09l-7.03,15.69h-2.18l2.58-5.46-1.32-10.22h2.31Z"></path>
    <path class="cls-2" d="M149.79,105.57c-.15.93-.59,3.48.75,3.48,1.1,0,1.5-1.21,1.63-2.07h1.92c-.33,2.05-1.52,3.92-3.86,3.92-3.11,0-2.89-3.3-2.51-5.66.38-2.27,1.19-5.82,4.25-5.82s2.82,3.53,2.45,5.82l-.04.33h-4.58ZM152.5,104.1c.13-.86.44-2.82-.81-2.82s-1.52,1.96-1.65,2.82h2.47ZM152.32,98.21l-.99-.64,2.31-3.28,1.32.95-2.64,2.97Z"></path>
    <path class="cls-2" d="M159.88,100.88h.04c.31-.46.66-.82,1.04-1.06.42-.26.88-.4,1.43-.4,2.2,0,1.96,1.96,1.7,3.66l-1.21,7.65h-2.07l1.21-7.69c.13-.77.15-1.76-.95-1.76-1.37,0-1.5,1.56-1.65,2.51l-1.1,6.94h-2.07l1.76-11.13h2.07l-.2,1.28Z"></path>
    <path class="cls-2" d="M170.5,109.29h-.04c-.57.97-1.12,1.61-2.29,1.61-2.58,0-1.98-4.08-1.7-5.88.29-1.85.95-5.6,3.57-5.6,1.06,0,1.48.57,1.76,1.41h.04l1.32-8.39h2.07l-2.89,18.29h-2.07l.22-1.43ZM171.23,105.15c.13-.88.71-3.88-.68-3.88-1.54,0-1.83,2.97-1.98,3.88-.15.92-.79,3.9.75,3.9,1.39,0,1.78-3.02,1.92-3.9Z"></path>
    <path class="cls-2" d="M175.92,105.2c.37-2.42,1.23-5.77,4.41-5.77s2.97,3.35,2.6,5.77c-.38,2.33-1.23,5.71-4.41,5.71s-2.97-3.37-2.6-5.71ZM180.81,105.2c.13-.88.82-3.88-.77-3.88s-1.87,3-2,3.88c-.13.79-.82,3.81.77,3.81s1.87-3.02,2-3.81Z"></path>
    <path class="cls-2" d="M188.37,100.88h.04c.31-.46.66-.82,1.04-1.06.42-.26.88-.4,1.43-.4,2.2,0,1.96,1.96,1.7,3.66l-1.21,7.65h-2.07l1.21-7.69c.13-.77.15-1.76-.95-1.76-1.37,0-1.5,1.56-1.65,2.51l-1.1,6.94h-2.07l1.76-11.13h2.07l-.2,1.28Z"></path>
    <path class="cls-2" d="M194.93,105.2c.37-2.42,1.23-5.77,4.41-5.77s2.97,3.35,2.6,5.77c-.38,2.33-1.23,5.71-4.41,5.71s-2.97-3.37-2.6-5.71ZM199.82,105.2c.13-.88.81-3.88-.77-3.88s-1.87,3-2,3.88c-.13.79-.82,3.81.77,3.81s1.87-3.02,2.01-3.81Z"></path>
    <path class="cls-2" d="M209.34,101.87c-.35-.35-.95-.59-1.45-.59-.77,0-1.48.44-1.61,1.19-.24,1.87,3.17,1.96,2.67,5.13-.31,1.96-1.72,3.3-3.7,3.3-.73,0-1.17-.15-1.72-.53l.31-2.03c.46.42.9.71,1.61.71.9,0,1.48-.55,1.61-1.41.31-1.96-3.15-2.09-2.67-5.18.29-1.76,1.7-3.04,3.46-3.04.71,0,1.26.13,1.81.49l-.31,1.96Z"></path>
    <polyline class="cls-1" points="1.07 137.11 1.07 38.02 63.99 1.85 63.99 50.89"></polyline>
  </g>
</svg>
